<svg width="38" height="22" viewBox="0 0 38 22" fill="none" xmlns="http://www.w3.org/2000/svg">
<path d="M36.9455 6.72035C36.6181 6.23455 36.1492 5.82972 35.5847 5.54533C35.0201 5.26094 34.379 5.10671 33.7241 5.09768H9.46878L8.36971 1.43043C8.25867 1.07642 8.01092 0.765043 7.66683 0.547C7.32274 0.328958 6.90257 0.217102 6.47476 0.22965H2.68487C2.18229 0.22965 1.70031 0.40061 1.34493 0.704921C0.989563 1.00923 0.789917 1.42197 0.789917 1.85233C0.789917 2.28269 0.989563 2.69542 1.34493 2.99973C1.70031 3.30404 2.18229 3.475 2.68487 3.475H5.0346L10.2647 20.1237C10.3757 20.4777 10.6234 20.789 10.9675 21.0071C11.3116 21.2251 11.7318 21.337 12.1596 21.3244H29.2141C29.5641 21.3235 29.9069 21.2397 30.2046 21.0821C30.5022 20.9246 30.7432 20.6996 30.9006 20.432L37.1161 9.78721C37.3855 9.30368 37.5109 8.77055 37.4811 8.23542C37.4514 7.70028 37.2674 7.17978 36.9455 6.72035Z" fill="#AF4C39" fill-opacity="0.4"/>
</svg>
