<svg width="12" height="10" viewBox="0 0 12 10" fill="none" xmlns="http://www.w3.org/2000/svg">
<path d="M1.5 0.132141C1.10218 0.132141 0.720644 0.267469 0.43934 0.508355C0.158035 0.749241 0 1.07595 0 1.41662L0 6.55452C0 6.89518 0.158035 7.22189 0.43934 7.46278C0.720644 7.70366 1.10218 7.83899 1.5 7.83899H3.375C3.49143 7.83899 3.60627 7.8622 3.71041 7.90679C3.81455 7.95138 3.90514 8.01612 3.975 8.09588L5.4 9.72267C5.46986 9.80244 5.56045 9.86718 5.66459 9.91177C5.76873 9.95635 5.88357 9.97957 6 9.97957C6.11643 9.97957 6.23127 9.95635 6.33541 9.91177C6.43955 9.86718 6.53014 9.80244 6.6 9.72267L8.025 8.09588C8.09486 8.01612 8.18545 7.95138 8.28959 7.90679C8.39373 7.8622 8.50857 7.83899 8.625 7.83899H10.5C10.8978 7.83899 11.2794 7.70366 11.5607 7.46278C11.842 7.22189 12 6.89518 12 6.55452V1.41662C12 1.07595 11.842 0.749241 11.5607 0.508355C11.2794 0.267469 10.8978 0.132141 10.5 0.132141L1.5 0.132141Z" fill="black"/>
</svg>
