<svg width="9" height="15" viewBox="0 0 9 15" fill="none" xmlns="http://www.w3.org/2000/svg">
<path fill-rule="evenodd" clip-rule="evenodd" d="M0.125001 4.12498C0.125075 3.33115 0.354203 2.55421 0.784891 1.88737C1.21558 1.22053 1.82953 0.69213 2.55308 0.365569C3.27663 0.039008 4.07904 -0.0718403 4.86403 0.0463249C5.64901 0.16449 6.38323 0.506649 6.97858 1.03175C7.57392 1.55684 8.00511 2.24257 8.2204 3.00665C8.43569 3.77073 8.42594 4.5807 8.19231 5.33937C7.95869 6.09804 7.51111 6.77319 6.90329 7.2838C6.29547 7.79441 5.55323 8.11879 4.76563 8.21802V13.9219C4.76563 14.0586 4.7113 14.1898 4.6146 14.2865C4.5179 14.3832 4.38675 14.4375 4.25 14.4375C4.11325 14.4375 3.9821 14.3832 3.8854 14.2865C3.7887 14.1898 3.73438 14.0586 3.73438 13.9219V8.21905C2.73712 8.0934 1.82005 7.60796 1.15544 6.85391C0.490828 6.09986 0.124404 5.12909 0.125001 4.12395V4.12498Z" fill="black"/>
</svg>
