<svg width="38" height="31" viewBox="0 0 38 31" fill="none" xmlns="http://www.w3.org/2000/svg">
<path d="M32.2124 0.12262H6.26645C4.79189 0.12262 3.37772 0.624222 2.33504 1.51708C1.29237 2.40994 0.706604 3.62091 0.706604 4.88361V28.6885C0.70717 28.9698 0.794985 29.2458 0.96106 29.4884C1.12714 29.731 1.36551 29.9314 1.65178 30.0692C1.92876 30.2037 2.24151 30.2747 2.55989 30.2755C2.89252 30.2755 3.21899 30.1987 3.50506 30.0534L11.8263 25.7367C12.1339 25.5799 12.4879 25.5028 12.8456 25.5146H32.2124C33.687 25.5146 35.1011 25.0129 36.1438 24.1201C37.1865 23.2272 37.7722 22.0163 37.7722 20.7536V4.88361C37.7722 3.62091 37.1865 2.40994 36.1438 1.51708C35.1011 0.624222 33.687 0.12262 32.2124 0.12262ZM11.8263 14.4056C11.4597 14.4056 11.1014 14.3125 10.7967 14.1381C10.4919 13.9637 10.2544 13.7159 10.1141 13.4259C9.97381 13.1359 9.93711 12.8168 10.0086 12.509C10.0801 12.2011 10.2566 11.9184 10.5158 11.6964C10.775 11.4745 11.1052 11.3233 11.4647 11.2621C11.8242 11.2008 12.1969 11.2323 12.5355 11.3524C12.8742 11.4725 13.1636 11.6759 13.3672 11.9369C13.5709 12.1979 13.6796 12.5047 13.6796 12.8186C13.6796 13.2395 13.4843 13.6431 13.1368 13.9408C12.7892 14.2384 12.3178 14.4056 11.8263 14.4056ZM19.2394 14.4056C18.8729 14.4056 18.5146 14.3125 18.2098 14.1381C17.905 13.9637 17.6675 13.7159 17.5272 13.4259C17.3869 13.1359 17.3502 12.8168 17.4217 12.509C17.4933 12.2011 17.6698 11.9184 17.929 11.6964C18.1881 11.4745 18.5184 11.3233 18.8779 11.2621C19.2374 11.2008 19.61 11.2323 19.9486 11.3524C20.2873 11.4725 20.5767 11.6759 20.7804 11.9369C20.984 12.1979 21.0927 12.5047 21.0927 12.8186C21.0927 13.2395 20.8974 13.6431 20.5499 13.9408C20.2023 14.2384 19.7309 14.4056 19.2394 14.4056ZM26.6525 14.4056C26.286 14.4056 25.9277 14.3125 25.6229 14.1381C25.3181 13.9637 25.0806 13.7159 24.9403 13.4259C24.8001 13.1359 24.7634 12.8168 24.8349 12.509C24.9064 12.2011 25.0829 11.9184 25.3421 11.6964C25.6013 11.4745 25.9315 11.3233 26.291 11.2621C26.6505 11.2008 27.0231 11.2323 27.3618 11.3524C27.7004 11.4725 27.9899 11.6759 28.1935 11.9369C28.3971 12.1979 28.5058 12.5047 28.5058 12.8186C28.5058 13.2395 28.3106 13.6431 27.963 13.9408C27.6155 14.2384 27.1441 14.4056 26.6525 14.4056Z" fill="#AF4C39" fill-opacity="0.4"/>
</svg>
