<svg width="12" height="13" viewBox="0 0 12 13" fill="none" xmlns="http://www.w3.org/2000/svg">
<path fill-rule="evenodd" clip-rule="evenodd" d="M1.4141 0.94543C1.54533 0.814523 1.70291 0.712973 1.8764 0.64751C2.04989 0.582047 2.23532 0.554166 2.42041 0.565714C2.6055 0.577262 2.78601 0.627976 2.95 0.714494C3.11399 0.801013 3.2577 0.921361 3.3716 1.06756L4.71785 2.7954C4.9646 3.11234 5.0516 3.52519 4.9541 3.91481L4.54385 5.55573C4.52264 5.64072 4.52379 5.72975 4.54718 5.81416C4.57057 5.89858 4.61541 5.97552 4.67735 6.03752L6.5201 7.87849C6.58223 7.9405 6.65937 7.98537 6.74402 8.00874C6.82866 8.03211 6.91792 8.03319 7.0031 8.01186L8.64485 7.60201C8.83731 7.55393 9.0382 7.5502 9.23231 7.59109C9.42643 7.63198 9.6087 7.71642 9.76535 7.83803L11.4949 9.18223C12.1166 9.66552 12.1736 10.5834 11.6171 11.1386L10.8416 11.9133C10.2866 12.4678 9.4571 12.7113 8.68385 12.4393C6.70474 11.7437 4.90781 10.6117 3.42635 9.12753C1.94082 7.64772 0.807809 5.85279 0.111353 3.87585C-0.160147 3.1041 0.0836032 2.27465 0.638603 1.72018L1.4141 0.94543Z" fill="black"/>
</svg>
